<?xml version="1.0" encoding="utf-8" standalone="no"?>
<!DOCTYPE svg PUBLIC "-//W3C//DTD SVG 1.1//EN"
  "http://www.w3.org/Graphics/SVG/1.1/DTD/svg11.dtd">
<svg xmlns:xlink="http://www.w3.org/1999/xlink" width="1296pt" height="432pt" viewBox="0 0 1296 432" xmlns="http://www.w3.org/2000/svg" version="1.1">
 <metadata>
  <rdf:RDF xmlns:dc="http://purl.org/dc/elements/1.1/" xmlns:cc="http://creativecommons.org/ns#" xmlns:rdf="http://www.w3.org/1999/02/22-rdf-syntax-ns#">
   <cc:Work>
    <dc:type rdf:resource="http://purl.org/dc/dcmitype/StillImage"/>
    <dc:date>2025-08-25T14:59:41.730689</dc:date>
    <dc:format>image/svg+xml</dc:format>
    <dc:creator>
     <cc:Agent>
      <dc:title>Matplotlib v3.9.2, https://matplotlib.org/</dc:title>
     </cc:Agent>
    </dc:creator>
   </cc:Work>
  </rdf:RDF>
 </metadata>
 <defs>
  <style type="text/css">*{stroke-linejoin: round; stroke-linecap: butt}</style>
 </defs>
 <g id="figure_1">
  <g id="patch_1">
   <path d="M 0 432 
L 1296 432 
L 1296 0 
L 0 0 
z
" style="fill: #ffffff"/>
  </g>
  <g id="axes_1">
   <g id="patch_2">
    <path d="M 81.970479 339.890266 
L 629.863385 339.890266 
L 629.863385 58.882706 
L 81.970479 58.882706 
z
" style="fill: #ffffff"/>
   </g>
   <g id="matplotlib.axis_1">
    <g id="xtick_1">
     <g id="line2d_1">
      <defs>
       <path id="m19348a9eb2" d="M 0 0 
L 0 3.5 
" style="stroke: #000000; stroke-width: 0.8"/>
      </defs>
      <g>
       <use xlink:href="#m19348a9eb2" x="106.8747" y="339.890266" style="stroke: #000000; stroke-width: 0.8"/>
      </g>
     </g>
     <g id="text_1">
      <!-- $\mathdefault{0.0}$ -->
      <g transform="translate(89.10298 367.645762) scale(0.3 -0.3)">
       <defs>
        <path id="CMR17-30" d="M 2688 2038 
C 2688 2430 2682 3099 2413 3613 
C 2176 4063 1798 4224 1466 4224 
C 1158 4224 768 4082 525 3620 
C 269 3137 243 2539 243 2038 
C 243 1671 250 1112 448 623 
C 723 -39 1216 -128 1466 -128 
C 1760 -128 2208 -7 2470 604 
C 2662 1048 2688 1568 2688 2038 
z
M 1466 -26 
C 1056 -26 813 328 723 816 
C 653 1196 653 1749 653 2109 
C 653 2604 653 3015 736 3407 
C 858 3954 1216 4121 1466 4121 
C 1728 4121 2067 3947 2189 3420 
C 2272 3054 2278 2623 2278 2109 
C 2278 1691 2278 1176 2202 797 
C 2067 96 1690 -26 1466 -26 
z
" transform="scale(0.015625)"/>
        <path id="CMMI12-3a" d="M 1178 307 
C 1178 492 1024 620 870 620 
C 685 620 557 467 557 313 
C 557 128 710 0 864 0 
C 1050 0 1178 153 1178 307 
z
" transform="scale(0.015625)"/>
       </defs>
       <use xlink:href="#CMR17-30" transform="scale(0.996264)"/>
       <use xlink:href="#CMMI12-3a" transform="translate(45.690477 0) scale(0.996264)"/>
       <use xlink:href="#CMR17-30" transform="translate(72.787654 0) scale(0.996264)"/>
      </g>
     </g>
    </g>
    <g id="xtick_2">
     <g id="line2d_2">
      <g>
       <use xlink:href="#m19348a9eb2" x="206.491593" y="339.890266" style="stroke: #000000; stroke-width: 0.8"/>
      </g>
     </g>
     <g id="text_2">
      <!-- $\mathdefault{0.2}$ -->
      <g transform="translate(188.719873 367.645762) scale(0.3 -0.3)">
       <defs>
        <path id="CMR17-32" d="M 2669 990 
L 2554 990 
C 2490 537 2438 460 2413 422 
C 2381 371 1920 371 1830 371 
L 602 371 
C 832 620 1280 1073 1824 1596 
C 2214 1966 2669 2400 2669 3033 
C 2669 3788 2067 4224 1395 4224 
C 691 4224 262 3603 262 3027 
C 262 2777 448 2745 525 2745 
C 589 2745 781 2783 781 3007 
C 781 3206 614 3264 525 3264 
C 486 3264 448 3257 422 3244 
C 544 3788 915 4057 1306 4057 
C 1862 4057 2227 3616 2227 3033 
C 2227 2477 1901 1998 1536 1583 
L 262 147 
L 262 0 
L 2515 0 
L 2669 990 
z
" transform="scale(0.015625)"/>
       </defs>
       <use xlink:href="#CMR17-30" transform="scale(0.996264)"/>
       <use xlink:href="#CMMI12-3a" transform="translate(45.690477 0) scale(0.996264)"/>
       <use xlink:href="#CMR17-32" transform="translate(72.787654 0) scale(0.996264)"/>
      </g>
     </g>
    </g>
    <g id="xtick_3">
     <g id="line2d_3">
      <g>
       <use xlink:href="#m19348a9eb2" x="306.108487" y="339.890266" style="stroke: #000000; stroke-width: 0.8"/>
      </g>
     </g>
     <g id="text_3">
      <!-- $\mathdefault{0.4}$ -->
      <g transform="translate(288.336767 367.645762) scale(0.3 -0.3)">
       <defs>
        <path id="CMR17-34" d="M 2150 4147 
C 2150 4281 2144 4288 2029 4288 
L 128 1254 
L 128 1088 
L 1779 1088 
L 1779 460 
C 1779 230 1766 166 1318 166 
L 1197 166 
L 1197 0 
C 1402 12 1747 12 1965 12 
C 2182 12 2528 12 2733 0 
L 2733 166 
L 2611 166 
C 2163 166 2150 230 2150 460 
L 2150 1088 
L 2803 1088 
L 2803 1254 
L 2150 1254 
L 2150 4147 
z
M 1798 3723 
L 1798 1254 
L 256 1254 
L 1798 3723 
z
" transform="scale(0.015625)"/>
       </defs>
       <use xlink:href="#CMR17-30" transform="scale(0.996264)"/>
       <use xlink:href="#CMMI12-3a" transform="translate(45.690477 0) scale(0.996264)"/>
       <use xlink:href="#CMR17-34" transform="translate(72.787654 0) scale(0.996264)"/>
      </g>
     </g>
    </g>
    <g id="xtick_4">
     <g id="line2d_4">
      <g>
       <use xlink:href="#m19348a9eb2" x="405.72538" y="339.890266" style="stroke: #000000; stroke-width: 0.8"/>
      </g>
     </g>
     <g id="text_4">
      <!-- $\mathdefault{0.6}$ -->
      <g transform="translate(387.953661 367.645762) scale(0.3 -0.3)">
       <defs>
        <path id="CMR17-36" d="M 678 2198 
C 678 3712 1395 4076 1811 4076 
C 1946 4076 2272 4049 2400 3782 
C 2298 3782 2106 3782 2106 3558 
C 2106 3385 2246 3328 2336 3328 
C 2394 3328 2566 3353 2566 3571 
C 2566 3987 2246 4224 1805 4224 
C 1043 4224 243 3411 243 2011 
C 243 257 966 -128 1478 -128 
C 2099 -128 2688 431 2688 1295 
C 2688 2101 2170 2688 1517 2688 
C 1126 2688 838 2430 678 1979 
L 678 2198 
z
M 1478 25 
C 691 25 691 1212 691 1450 
C 691 1914 909 2585 1504 2585 
C 1613 2585 1926 2585 2138 2140 
C 2253 1889 2253 1624 2253 1302 
C 2253 954 2253 696 2118 438 
C 1978 173 1773 25 1478 25 
z
" transform="scale(0.015625)"/>
       </defs>
       <use xlink:href="#CMR17-30" transform="scale(0.996264)"/>
       <use xlink:href="#CMMI12-3a" transform="translate(45.690477 0) scale(0.996264)"/>
       <use xlink:href="#CMR17-36" transform="translate(72.787654 0) scale(0.996264)"/>
      </g>
     </g>
    </g>
    <g id="xtick_5">
     <g id="line2d_5">
      <g>
       <use xlink:href="#m19348a9eb2" x="505.342274" y="339.890266" style="stroke: #000000; stroke-width: 0.8"/>
      </g>
     </g>
     <g id="text_5">
      <!-- $\mathdefault{0.8}$ -->
      <g transform="translate(487.570554 367.645762) scale(0.3 -0.3)">
       <defs>
        <path id="CMR17-38" d="M 1741 2289 
C 2144 2494 2554 2803 2554 3298 
C 2554 3884 1990 4224 1472 4224 
C 890 4224 378 3800 378 3215 
C 378 3054 416 2777 666 2533 
C 730 2469 998 2276 1171 2154 
C 883 2006 211 1652 211 945 
C 211 282 838 -128 1459 -128 
C 2144 -128 2720 366 2720 1022 
C 2720 1607 2330 1877 2074 2051 
L 1741 2289 
z
M 902 2855 
C 851 2887 595 3086 595 3388 
C 595 3781 998 4076 1459 4076 
C 1965 4076 2336 3716 2336 3298 
C 2336 2700 1670 2359 1638 2359 
C 1632 2359 1626 2359 1574 2398 
L 902 2855 
z
M 2080 1536 
C 2176 1466 2483 1253 2483 861 
C 2483 385 2010 25 1472 25 
C 890 25 448 443 448 951 
C 448 1459 838 1884 1280 2083 
L 2080 1536 
z
" transform="scale(0.015625)"/>
       </defs>
       <use xlink:href="#CMR17-30" transform="scale(0.996264)"/>
       <use xlink:href="#CMMI12-3a" transform="translate(45.690477 0) scale(0.996264)"/>
       <use xlink:href="#CMR17-38" transform="translate(72.787654 0) scale(0.996264)"/>
      </g>
     </g>
    </g>
    <g id="xtick_6">
     <g id="line2d_6">
      <g>
       <use xlink:href="#m19348a9eb2" x="604.959167" y="339.890266" style="stroke: #000000; stroke-width: 0.8"/>
      </g>
     </g>
     <g id="text_6">
      <!-- $\mathdefault{1.0}$ -->
      <g transform="translate(587.187448 367.645762) scale(0.3 -0.3)">
       <defs>
        <path id="CMR17-31" d="M 1702 4083 
C 1702 4217 1696 4224 1606 4224 
C 1357 3927 979 3833 621 3820 
C 602 3820 570 3820 563 3808 
C 557 3795 557 3782 557 3648 
C 755 3648 1088 3686 1344 3839 
L 1344 467 
C 1344 243 1331 166 781 166 
L 589 166 
L 589 0 
C 896 6 1216 12 1523 12 
C 1830 12 2150 6 2458 0 
L 2458 166 
L 2266 166 
C 1715 166 1702 236 1702 467 
L 1702 4083 
z
" transform="scale(0.015625)"/>
       </defs>
       <use xlink:href="#CMR17-31" transform="scale(0.996264)"/>
       <use xlink:href="#CMMI12-3a" transform="translate(45.690477 0) scale(0.996264)"/>
       <use xlink:href="#CMR17-30" transform="translate(72.787654 0) scale(0.996264)"/>
      </g>
     </g>
    </g>
    <g id="text_7">
     <!-- $x$ -->
     <g transform="translate(348.987679 394.755466) scale(0.25 -0.25)">
      <defs>
       <path id="CMMI12-78" d="M 3034 2624 
C 2829 2585 2752 2431 2752 2310 
C 2752 2156 2874 2105 2963 2105 
C 3155 2105 3290 2271 3290 2444 
C 3290 2694 2982 2816 2714 2816 
C 2323 2816 2106 2451 2048 2329 
C 1901 2790 1504 2816 1389 2816 
C 736 2816 390 1993 390 1849 
C 390 1823 416 1790 461 1790 
C 512 1790 525 1829 538 1855 
C 755 2572 1184 2687 1370 2687 
C 1658 2687 1715 2438 1715 2284 
C 1715 2143 1677 1993 1600 1678 
L 1382 778 
C 1286 390 1101 64 762 64 
C 730 64 570 64 435 126 
C 666 166 717 358 717 435 
C 717 563 621 640 499 640 
C 346 640 179 505 179 300 
C 179 57 480 -64 755 -64 
C 1062 -64 1280 153 1414 415 
C 1517 64 1837 -64 2074 -64 
C 2726 -64 3072 751 3072 896 
C 3072 929 3046 955 3008 955 
C 2950 955 2944 922 2925 870 
C 2752 300 2381 64 2093 64 
C 1869 64 1747 204 1747 467 
C 1747 607 1773 712 1875 1146 
L 2099 2039 
C 2195 2425 2413 2687 2707 2687 
C 2720 2687 2899 2687 3034 2624 
z
" transform="scale(0.015625)"/>
      </defs>
      <use xlink:href="#CMMI12-78" transform="scale(0.996264)"/>
     </g>
    </g>
   </g>
   <g id="matplotlib.axis_2">
    <g id="ytick_1">
     <g id="line2d_7">
      <defs>
       <path id="mcda6d4e5a7" d="M 0 0 
L -3.5 0 
" style="stroke: #000000; stroke-width: 0.8"/>
      </defs>
      <g>
       <use xlink:href="#mcda6d4e5a7" x="81.970479" y="309.333317" style="stroke: #000000; stroke-width: 0.8"/>
      </g>
     </g>
     <g id="text_8">
      <!-- $\mathdefault{0}$ -->
      <g transform="translate(61.263336 319.711065) scale(0.3 -0.3)">
       <use xlink:href="#CMR17-30" transform="scale(0.996264)"/>
      </g>
     </g>
    </g>
    <g id="ytick_2">
     <g id="line2d_8">
      <g>
       <use xlink:href="#mcda6d4e5a7" x="81.970479" y="187.299112" style="stroke: #000000; stroke-width: 0.8"/>
      </g>
     </g>
     <g id="text_9">
      <!-- $\mathdefault{2}$ -->
      <g transform="translate(61.263336 197.676859) scale(0.3 -0.3)">
       <use xlink:href="#CMR17-32" transform="scale(0.996264)"/>
      </g>
     </g>
    </g>
    <g id="ytick_3">
     <g id="line2d_9">
      <g>
       <use xlink:href="#mcda6d4e5a7" x="81.970479" y="65.264906" style="stroke: #000000; stroke-width: 0.8"/>
      </g>
     </g>
     <g id="text_10">
      <!-- $\mathdefault{4}$ -->
      <g transform="translate(61.263336 75.642654) scale(0.3 -0.3)">
       <use xlink:href="#CMR17-34" transform="scale(0.996264)"/>
      </g>
     </g>
    </g>
    <g id="text_11">
     <!-- $D_{KL}(x)$ -->
     <g transform="translate(51.057528 239.204538) rotate(-90) scale(0.25 -0.25)">
      <defs>
       <path id="CMMI12-44" d="M 1005 472 
C 947 249 934 185 486 185 
C 365 185 301 185 301 70 
C 301 0 339 0 467 0 
L 2496 0 
C 3789 0 5050 1332 5050 2752 
C 5050 3669 4499 4352 3584 4352 
L 1530 4352 
C 1408 4352 1350 4352 1350 4230 
C 1350 4166 1408 4166 1504 4166 
C 1894 4166 1894 4115 1894 4045 
C 1894 4032 1894 3994 1869 3898 
L 1005 472 
z
M 2355 3917 
C 2413 4153 2438 4166 2688 4166 
L 3392 4166 
C 3994 4166 4544 3841 4544 2962 
C 4544 2644 4416 1535 3795 835 
C 3616 625 3130 185 2394 185 
L 1664 185 
C 1574 185 1562 185 1523 191 
C 1453 198 1446 211 1446 262 
C 1446 306 1459 344 1472 402 
L 2355 3917 
z
" transform="scale(0.015625)"/>
       <path id="CMMI12-4b" d="M 3200 2574 
C 3194 2593 3168 2644 3168 2663 
C 3168 2669 3174 2675 3283 2758 
L 3904 3242 
C 4762 3905 5043 4128 5485 4166 
C 5530 4172 5594 4172 5594 4281 
C 5594 4319 5574 4352 5523 4352 
C 5453 4352 5376 4339 5306 4339 
L 5062 4339 
C 4864 4339 4653 4352 4461 4352 
C 4416 4352 4339 4352 4339 4236 
C 4339 4172 4384 4166 4422 4166 
C 4493 4159 4576 4134 4576 4045 
C 4576 3917 4384 3765 4333 3726 
L 1824 1784 
L 2355 3886 
C 2413 4102 2426 4166 2880 4166 
C 3002 4166 3059 4166 3059 4287 
C 3059 4352 2995 4352 2963 4352 
C 2848 4352 2714 4339 2592 4339 
L 1837 4339 
C 1722 4339 1581 4352 1466 4352 
C 1414 4352 1344 4352 1344 4230 
C 1344 4166 1402 4166 1498 4166 
C 1888 4166 1888 4115 1888 4045 
C 1888 4032 1888 3994 1862 3898 
L 998 472 
C 941 249 928 185 480 185 
C 358 185 294 185 294 70 
C 294 0 352 0 390 0 
C 512 0 640 12 762 12 
L 1510 12 
C 1632 12 1766 0 1888 0 
C 1939 0 2010 0 2010 121 
C 2010 185 1952 185 1856 185 
C 1466 185 1466 236 1466 300 
C 1466 344 1504 504 1530 605 
L 1779 1593 
L 2752 2351 
C 2938 1943 3277 1128 3539 504 
C 3558 465 3571 427 3571 383 
C 3571 191 3315 185 3258 185 
C 3200 185 3136 185 3136 64 
C 3136 0 3206 0 3226 0 
C 3450 0 3686 12 3910 12 
L 4218 12 
C 4314 12 4422 0 4518 0 
C 4557 0 4627 0 4627 121 
C 4627 185 4570 185 4506 185 
C 4269 191 4186 242 4090 472 
L 3200 2574 
z
" transform="scale(0.015625)"/>
       <path id="CMMI12-4c" d="M 2349 3860 
C 2406 4102 2426 4166 2989 4166 
C 3162 4166 3206 4166 3206 4287 
C 3206 4352 3136 4352 3110 4352 
C 2982 4352 2835 4339 2707 4339 
L 1850 4339 
C 1728 4339 1587 4352 1466 4352 
C 1414 4352 1344 4352 1344 4230 
C 1344 4166 1402 4166 1498 4166 
C 1888 4166 1888 4115 1888 4045 
C 1888 4032 1888 3994 1862 3898 
L 998 472 
C 941 249 928 185 480 185 
C 358 185 294 185 294 70 
C 294 0 333 0 461 0 
L 3328 0 
C 3469 0 3475 6 3520 121 
L 4013 1478 
C 4026 1510 4038 1548 4038 1567 
C 4038 1605 4006 1631 3974 1631 
C 3968 1631 3936 1631 3923 1605 
C 3910 1599 3910 1586 3859 1465 
C 3654 905 3366 185 2285 185 
L 1670 185 
C 1581 185 1568 185 1530 191 
C 1459 198 1453 211 1453 262 
C 1453 306 1466 344 1478 402 
L 2349 3860 
z
" transform="scale(0.015625)"/>
       <path id="CMR17-28" d="M 1958 -1562 
C 1958 -1556 1958 -1543 1939 -1524 
C 1645 -1223 858 -403 858 1596 
C 858 3595 1632 4408 1946 4729 
C 1946 4735 1958 4748 1958 4767 
C 1958 4787 1939 4800 1914 4800 
C 1843 4800 1299 4325 986 3620 
C 666 2909 576 2218 576 1603 
C 576 1141 621 360 1005 -467 
C 1312 -1133 1837 -1600 1914 -1600 
C 1946 -1600 1958 -1588 1958 -1562 
z
" transform="scale(0.015625)"/>
       <path id="CMR17-29" d="M 1683 1596 
C 1683 2057 1638 2839 1254 3665 
C 947 4332 422 4800 346 4800 
C 326 4800 301 4793 301 4761 
C 301 4748 307 4742 314 4729 
C 621 4408 1402 3595 1402 1603 
C 1402 -396 627 -1210 314 -1530 
C 307 -1543 301 -1549 301 -1562 
C 301 -1594 326 -1600 346 -1600 
C 416 -1600 960 -1127 1274 -422 
C 1594 289 1683 981 1683 1596 
z
" transform="scale(0.015625)"/>
      </defs>
      <use xlink:href="#CMMI12-44" transform="scale(0.996264)"/>
      <use xlink:href="#CMMI12-4b" transform="translate(80.99423 -14.943915) scale(0.697382)"/>
      <use xlink:href="#CMMI12-4c" transform="translate(144.097133 -14.943915) scale(0.697382)"/>
      <use xlink:href="#CMR17-28" transform="translate(191.054678 0) scale(0.996264)"/>
      <use xlink:href="#CMMI12-78" transform="translate(226.335446 0) scale(0.996264)"/>
      <use xlink:href="#CMR17-29" transform="translate(281.769506 0) scale(0.996264)"/>
     </g>
    </g>
   </g>
   <g id="line2d_10">
    <path d="M 106.874702 312.645296 
L 106.87518 309.339647 
L 106.973901 309.339678 
L 223.790419 309.203071 
L 252.025141 309.060437 
L 290.847883 309.133199 
L 319.082605 308.983769 
L 336.729306 308.711048 
L 347.317327 308.37779 
L 354.376007 308.037572 
L 361.434687 307.523507 
L 368.493368 306.803459 
L 379.081388 305.616633 
L 382.610729 305.358865 
L 386.140069 305.291611 
L 393.198749 305.519364 
L 410.84545 306.502051 
L 424.962811 306.835009 
L 435.550832 306.900348 
L 449.668193 306.759091 
L 463.785554 306.240539 
L 474.373574 305.538716 
L 481.432255 304.807923 
L 488.490935 303.694556 
L 492.020275 302.975476 
L 495.549616 301.996476 
L 499.078956 300.824623 
L 502.608296 299.208967 
L 506.137636 297.103097 
L 509.666976 294.25069 
L 513.196317 290.547117 
L 520.254997 280.779692 
L 523.784337 277.799456 
L 527.313678 278.722791 
L 530.843018 282.521068 
L 534.372358 286.86307 
L 537.901698 290.353441 
L 541.431038 293.249987 
L 544.960379 295.331644 
L 548.489719 296.901254 
L 552.019059 298.050032 
L 555.548399 298.974529 
L 559.07774 299.66489 
L 566.13642 300.505326 
L 569.66576 300.705784 
L 573.1951 300.720162 
L 580.253781 300.346039 
L 583.783121 299.764175 
L 587.312461 298.896995 
L 590.841801 297.511095 
L 594.371142 294.826315 
L 597.900482 289.624506 
L 601.429822 274.577774 
L 604.959162 309.894481 
L 604.959162 309.894481 
" clip-path="url(#p6034dd6df6)" style="fill: none; stroke: #1f77b4; stroke-width: 1.5; stroke-linecap: square"/>
   </g>
   <g id="line2d_11">
    <path d="M 355.916933 339.890266 
L 355.916933 329.413833 
" clip-path="url(#p6034dd6df6)" style="fill: none; stroke-dasharray: 5.55,2.4; stroke-dashoffset: 0; stroke: #1f77b4; stroke-width: 1.5"/>
   </g>
   <g id="line2d_12">
    <path d="M 106.874702 313.067594 
L 106.875867 309.343444 
L 106.973901 309.34345 
L 160.262295 309.260178 
L 177.908996 309.075525 
L 195.555697 308.847343 
L 234.37844 308.579316 
L 248.4958 308.248155 
L 259.083821 307.807756 
L 273.201182 306.857729 
L 297.906564 304.711813 
L 308.494584 304.301282 
L 312.023924 304.28393 
L 315.553265 304.066572 
L 319.082605 302.195241 
L 322.611945 303.757662 
L 326.141285 304.039842 
L 336.729306 303.691985 
L 350.846667 302.924502 
L 357.905347 302.246649 
L 361.434687 301.707495 
L 368.493368 300.927716 
L 375.552048 299.68082 
L 379.081388 299.054658 
L 386.140069 297.44539 
L 389.669409 296.579435 
L 403.78677 292.132222 
L 407.31611 290.744708 
L 410.84545 289.60472 
L 414.374791 288.771829 
L 421.433471 286.484762 
L 424.962811 285.937201 
L 432.021492 284.597912 
L 435.550832 284.106793 
L 439.080172 283.837826 
L 442.609512 283.408984 
L 446.138853 283.122151 
L 453.197533 282.364784 
L 456.726873 282.263286 
L 460.256213 281.784993 
L 463.785554 281.019479 
L 467.314894 280.590922 
L 474.373574 278.614454 
L 477.902915 277.209694 
L 481.432255 275.944457 
L 484.961595 274.276441 
L 488.490935 272.411008 
L 492.020275 270.132401 
L 495.549616 267.176976 
L 499.078956 263.92821 
L 502.608296 259.672177 
L 506.137636 254.373758 
L 509.666976 248.662927 
L 513.196317 241.304711 
L 516.725657 232.341833 
L 520.254997 221.070765 
L 523.784337 214.706119 
L 527.313678 206.604966 
L 530.843018 193.600125 
L 534.372358 179.997673 
L 537.901698 179.707968 
L 541.431038 171.153478 
L 544.960379 176.973449 
L 548.489719 200.857606 
L 552.019059 205.427171 
L 555.548399 216.409891 
L 559.07774 220.698106 
L 562.60708 231.423153 
L 566.13642 234.635575 
L 569.66576 237.171334 
L 573.1951 239.061718 
L 576.724441 241.61828 
L 580.253781 238.444099 
L 583.783121 239.442404 
L 587.312461 236.652402 
L 590.841801 231.595372 
L 597.900482 222.264641 
L 601.429822 226.524221 
L 604.959162 326.198302 
L 604.959162 326.198302 
" clip-path="url(#p6034dd6df6)" style="fill: none; stroke: #ff7f0e; stroke-width: 1.5; stroke-linecap: square"/>
   </g>
   <g id="line2d_13">
    <path d="M 206.491593 339.890266 
L 206.491593 338.827582 
" clip-path="url(#p6034dd6df6)" style="fill: none; stroke-dasharray: 5.55,2.4; stroke-dashoffset: 0; stroke: #ff7f0e; stroke-width: 1.5"/>
   </g>
   <g id="line2d_14">
    <path d="M 106.874702 313.067594 
L 106.874954 309.343447 
L 106.973901 309.343449 
L 130.133876 309.234534 
L 145.517339 308.967837 
L 156.732955 308.809849 
L 163.791635 308.517247 
L 170.850316 308.001337 
L 181.438336 307.15324 
L 192.026357 306.815796 
L 206.143718 306.408469 
L 227.319759 305.583143 
L 237.90778 305.18873 
L 248.4958 304.806114 
L 262.613161 304.094252 
L 283.789203 302.52067 
L 290.847883 301.876941 
L 294.377223 301.301123 
L 312.023924 299.819591 
L 315.553265 298.478635 
L 319.082605 299.170791 
L 322.611945 298.642197 
L 333.199966 298.054357 
L 336.729306 297.616948 
L 340.258646 297.564106 
L 350.846667 296.378565 
L 354.376007 296.387296 
L 357.905347 294.5856 
L 361.434687 295.535371 
L 364.964028 295.51585 
L 372.022708 294.667552 
L 379.081388 293.882683 
L 382.610729 291.406821 
L 386.140069 292.430584 
L 389.669409 291.984634 
L 393.198749 291.155406 
L 396.72809 290.624162 
L 400.25743 289.32119 
L 403.78677 289.146228 
L 407.31611 287.791938 
L 410.84545 286.191803 
L 414.374791 285.77267 
L 417.904131 284.166318 
L 421.433471 282.967854 
L 424.962811 281.093794 
L 428.492152 280.168323 
L 432.021492 268.77093 
L 435.550832 276.317457 
L 442.609512 272.535916 
L 446.138853 269.536394 
L 449.668193 265.983595 
L 453.197533 264.326515 
L 456.726873 259.321109 
L 460.256213 256.856443 
L 463.785554 253.634688 
L 467.314894 251.057619 
L 470.844234 247.813739 
L 474.373574 243.617339 
L 477.902915 235.165734 
L 481.432255 235.265789 
L 484.961595 231.971803 
L 488.490935 225.596438 
L 492.020275 222.845985 
L 495.549616 213.344531 
L 499.078956 214.749295 
L 502.608296 197.292923 
L 506.137636 209.22407 
L 509.666976 200.51523 
L 513.196317 201.5611 
L 516.725657 187.076903 
L 520.254997 192.347514 
L 523.784337 190.281598 
L 527.313678 179.711111 
L 530.843018 180.386169 
L 534.372358 175.914279 
L 537.901698 176.738534 
L 541.431038 89.496261 
L 544.960379 168.827748 
L 548.489719 125.673987 
L 555.548399 148.823325 
L 559.07774 71.655777 
L 562.60708 142.783205 
L 566.13642 112.647071 
L 569.66576 127.051325 
L 573.1951 165.588503 
L 576.724441 153.686291 
L 580.253781 137.628943 
L 583.783121 131.715603 
L 587.312461 178.799404 
L 590.841801 147.049253 
L 594.371142 189.808092 
L 597.900482 213.413381 
L 601.429822 195.920888 
L 604.959162 327.117196 
L 604.959162 327.117196 
" clip-path="url(#p6034dd6df6)" style="fill: none; stroke: #2ca02c; stroke-width: 1.5; stroke-linecap: square"/>
   </g>
   <g id="line2d_15">
    <path d="M 146.721457 339.890266 
L 146.721457 339.458157 
" clip-path="url(#p6034dd6df6)" style="fill: none; stroke-dasharray: 5.55,2.4; stroke-dashoffset: 0; stroke: #2ca02c; stroke-width: 1.5"/>
   </g>
   <g id="patch_3">
    <path d="M 81.970479 339.890266 
L 81.970479 58.882706 
" style="fill: none; stroke: #000000; stroke-width: 0.8; stroke-linejoin: miter; stroke-linecap: square"/>
   </g>
   <g id="patch_4">
    <path d="M 629.863385 339.890266 
L 629.863385 58.882706 
" style="fill: none; stroke: #000000; stroke-width: 0.8; stroke-linejoin: miter; stroke-linecap: square"/>
   </g>
   <g id="patch_5">
    <path d="M 81.970479 339.890266 
L 629.863385 339.890266 
" style="fill: none; stroke: #000000; stroke-width: 0.8; stroke-linejoin: miter; stroke-linecap: square"/>
   </g>
   <g id="patch_6">
    <path d="M 81.970479 58.882706 
L 629.863385 58.882706 
" style="fill: none; stroke: #000000; stroke-width: 0.8; stroke-linejoin: miter; stroke-linecap: square"/>
   </g>
   <g id="text_12">
    <!-- $x = 0.5$ -->
    <g style="fill: #1f77b4" transform="translate(370.252015 278.413653) rotate(-90) scale(0.2 -0.2)">
     <defs>
      <path id="CMR17-3d" d="M 4115 2048 
C 4211 2048 4307 2048 4307 2156 
C 4307 2272 4198 2272 4090 2272 
L 512 2272 
C 403 2272 294 2272 294 2156 
C 294 2048 390 2048 486 2048 
L 4115 2048 
z
M 4090 927 
C 4198 927 4307 927 4307 1043 
C 4307 1152 4211 1152 4115 1152 
L 486 1152 
C 390 1152 294 1152 294 1043 
C 294 927 403 927 512 927 
L 4090 927 
z
" transform="scale(0.015625)"/>
      <path id="CMR17-35" d="M 730 3750 
C 794 3724 1056 3641 1325 3641 
C 1920 3641 2246 3961 2432 4140 
C 2432 4191 2432 4224 2394 4224 
C 2387 4224 2374 4224 2323 4198 
C 2099 4102 1837 4032 1517 4032 
C 1325 4032 1037 4055 723 4191 
C 653 4224 640 4224 634 4224 
C 602 4224 595 4217 595 4090 
L 595 2231 
C 595 2113 595 2080 659 2080 
C 691 2080 704 2093 736 2139 
C 941 2435 1222 2560 1542 2560 
C 1766 2560 2246 2415 2246 1293 
C 2246 1087 2246 716 2054 422 
C 1894 159 1645 25 1370 25 
C 947 25 518 319 403 812 
C 429 806 480 793 506 793 
C 589 793 749 838 749 1036 
C 749 1209 627 1280 506 1280 
C 358 1280 262 1190 262 1011 
C 262 454 704 -128 1382 -128 
C 2042 -128 2669 441 2669 1267 
C 2669 2054 2170 2662 1549 2662 
C 1222 2662 947 2540 730 2304 
L 730 3750 
z
" transform="scale(0.015625)"/>
     </defs>
     <use xlink:href="#CMMI12-78" transform="scale(0.996264)"/>
     <use xlink:href="#CMR17-3d" transform="translate(83.108068 0) scale(0.996264)"/>
     <use xlink:href="#CMR17-30" transform="translate(182.496865 0) scale(0.996264)"/>
     <use xlink:href="#CMMI12-3a" transform="translate(228.187343 0) scale(0.996264)"/>
     <use xlink:href="#CMR17-35" transform="translate(255.28452 0) scale(0.996264)"/>
    </g>
   </g>
   <g id="text_13">
    <!-- $x = 0.2$ -->
    <g style="fill: #ff7f0e" transform="translate(220.826674 278.413653) rotate(-90) scale(0.2 -0.2)">
     <use xlink:href="#CMMI12-78" transform="scale(0.996264)"/>
     <use xlink:href="#CMR17-3d" transform="translate(83.108068 0) scale(0.996264)"/>
     <use xlink:href="#CMR17-30" transform="translate(182.496865 0) scale(0.996264)"/>
     <use xlink:href="#CMMI12-3a" transform="translate(228.187343 0) scale(0.996264)"/>
     <use xlink:href="#CMR17-32" transform="translate(255.28452 0) scale(0.996264)"/>
    </g>
   </g>
   <g id="text_14">
    <!-- $x = 0.08$ -->
    <g style="fill: #2ca02c" transform="translate(161.056538 282.982701) rotate(-90) scale(0.2 -0.2)">
     <use xlink:href="#CMMI12-78" transform="scale(0.996264)"/>
     <use xlink:href="#CMR17-3d" transform="translate(83.108068 0) scale(0.996264)"/>
     <use xlink:href="#CMR17-30" transform="translate(182.496865 0) scale(0.996264)"/>
     <use xlink:href="#CMMI12-3a" transform="translate(228.187343 0) scale(0.996264)"/>
     <use xlink:href="#CMR17-30" transform="translate(255.28452 0) scale(0.996264)"/>
     <use xlink:href="#CMR17-38" transform="translate(300.974997 0) scale(0.996264)"/>
    </g>
   </g>
   <g id="text_15">
    <!-- KL Divergence PDF, Fixed $g_{dPDF}$ -->
    <g transform="translate(185.295167 52.882706) scale(0.25 -0.25)">
     <defs>
      <path id="CMR17-4b" d="M 2362 2669 
L 3469 3771 
C 3699 3994 3942 4172 4301 4185 
L 4301 4352 
C 4173 4345 4013 4339 3885 4339 
C 3712 4339 3411 4339 3245 4352 
L 3245 4185 
C 3411 4172 3437 4057 3437 4013 
C 3437 3968 3411 3898 3386 3860 
L 1261 1739 
L 1261 3898 
C 1261 4185 1331 4185 1773 4185 
L 1773 4352 
C 1587 4339 1248 4339 1050 4339 
C 851 4339 512 4339 326 4352 
L 326 4185 
C 768 4185 838 4185 838 3898 
L 838 453 
C 838 166 768 166 326 166 
L 326 0 
C 512 12 851 12 1050 12 
C 1248 12 1587 12 1773 0 
L 1773 166 
C 1331 166 1261 166 1261 453 
L 1261 1580 
L 2080 2389 
L 3290 542 
C 3328 478 3373 395 3373 332 
C 3373 166 3194 166 3110 166 
L 3110 0 
C 3315 12 3610 12 3821 12 
C 3974 12 4237 12 4384 0 
L 4384 166 
C 4077 166 3981 204 3789 497 
L 2362 2669 
z
" transform="scale(0.015625)"/>
      <path id="CMR17-4c" d="M 3469 1612 
L 3354 1612 
C 3302 981 3219 166 2125 166 
L 1530 166 
C 1274 166 1261 198 1261 414 
L 1261 3892 
C 1261 4121 1274 4185 1760 4185 
L 1901 4185 
L 1901 4352 
C 1638 4339 1331 4339 1069 4339 
C 870 4339 512 4339 326 4352 
L 326 4185 
C 768 4185 838 4185 838 3898 
L 838 453 
C 838 166 768 166 326 166 
L 326 0 
L 3315 0 
L 3469 1612 
z
" transform="scale(0.015625)"/>
      <path id="CMR17-44" d="M 333 4352 
L 333 4185 
C 774 4185 845 4185 845 3898 
L 845 453 
C 845 166 774 166 333 166 
L 333 0 
L 2368 0 
C 3398 0 4224 943 4224 2140 
C 4224 3344 3411 4352 2368 4352 
L 333 4352 
z
M 1523 166 
C 1267 166 1254 198 1254 414 
L 1254 3936 
C 1254 4153 1267 4185 1523 4185 
L 2240 4185 
C 2771 4185 3750 3873 3750 2140 
C 3750 1242 3488 879 3366 707 
C 3213 510 2848 166 2240 166 
L 1523 166 
z
" transform="scale(0.015625)"/>
      <path id="CMR17-69" d="M 992 3961 
C 992 4102 877 4224 730 4224 
C 589 4224 467 4108 467 3961 
C 467 3820 582 3699 730 3699 
C 870 3699 992 3814 992 3961 
z
M 243 2745 
L 243 2579 
C 602 2579 653 2540 653 2231 
L 653 443 
C 653 198 627 166 218 166 
L 218 0 
C 371 12 646 12 806 12 
C 960 12 1222 12 1370 0 
L 1370 166 
C 992 166 979 205 979 436 
L 979 2816 
L 243 2745 
z
" transform="scale(0.015625)"/>
      <path id="CMR17-76" d="M 2502 2173 
C 2560 2315 2662 2572 3034 2585 
L 3034 2752 
C 2912 2745 2752 2739 2630 2739 
C 2496 2739 2285 2739 2157 2752 
L 2157 2585 
C 2317 2572 2406 2495 2406 2328 
C 2406 2270 2406 2257 2368 2167 
L 1664 379 
L 902 2308 
C 864 2392 864 2405 864 2431 
C 864 2585 1075 2585 1171 2585 
L 1171 2752 
C 1018 2739 736 2739 576 2739 
C 403 2739 205 2739 64 2752 
L 64 2585 
C 307 2585 442 2585 518 2386 
L 1446 44 
C 1485 -52 1491 -64 1549 -64 
C 1606 -64 1613 -52 1651 44 
L 2502 2173 
z
" transform="scale(0.015625)"/>
      <path id="CMR17-65" d="M 2438 1503 
C 2464 1529 2464 1542 2464 1606 
C 2464 2251 2118 2816 1389 2816 
C 710 2816 173 2175 173 1394 
C 173 554 781 -64 1459 -64 
C 2176 -64 2458 619 2458 755 
C 2458 800 2419 800 2406 800 
C 2362 800 2355 787 2330 709 
C 2189 270 1837 51 1504 51 
C 1229 51 954 206 781 490 
C 582 819 582 1200 582 1503 
L 2438 1503 
z
M 589 1600 
C 634 2511 1126 2713 1382 2713 
C 1818 2713 2112 2308 2118 1600 
L 589 1600 
z
" transform="scale(0.015625)"/>
      <path id="CMR17-72" d="M 960 1517 
C 960 2134 1222 2713 1702 2713 
C 1747 2713 1792 2707 1837 2687 
C 1837 2687 1696 2642 1696 2475 
C 1696 2321 1818 2257 1914 2257 
C 1990 2257 2131 2302 2131 2482 
C 2131 2687 1926 2816 1709 2816 
C 1222 2816 1011 2340 947 2115 
L 941 2115 
L 941 2816 
L 198 2745 
L 198 2578 
C 576 2578 634 2540 634 2231 
L 634 443 
C 634 198 608 166 198 166 
L 198 0 
C 352 12 646 12 813 12 
C 998 12 1325 12 1498 0 
L 1498 166 
C 1037 166 960 166 960 455 
L 960 1517 
z
" transform="scale(0.015625)"/>
      <path id="CMR17-67" d="M 710 1165 
C 832 1068 1043 960 1299 960 
C 1805 960 2240 1359 2240 1895 
C 2240 2063 2189 2321 1997 2521 
C 2176 2713 2438 2777 2586 2777 
C 2611 2777 2650 2777 2682 2758 
C 2656 2751 2598 2726 2598 2623 
C 2598 2540 2656 2483 2739 2483 
C 2835 2483 2886 2547 2886 2630 
C 2886 2751 2790 2880 2586 2880 
C 2330 2880 2106 2758 1926 2591 
C 1734 2764 1504 2828 1299 2828 
C 794 2828 358 2431 358 1895 
C 358 1527 570 1294 634 1230 
C 442 1004 442 742 442 710 
C 442 544 506 300 723 166 
C 390 82 128 -184 128 -517 
C 128 -996 736 -1344 1466 -1344 
C 2170 -1344 2803 -1009 2803 -510 
C 2803 384 1856 384 1363 384 
C 1216 384 954 384 922 390 
C 723 422 589 601 589 825 
C 589 883 589 1024 710 1165 
z
M 1299 1068 
C 736 1068 736 1766 736 1895 
C 736 2024 736 2719 1299 2719 
C 1862 2719 1862 2024 1862 1895 
C 1862 1766 1862 1068 1299 1068 
z
M 1466 -1236 
C 826 -1236 384 -883 384 -517 
C 384 -311 493 -118 634 -11 
C 794 102 858 102 1293 102 
C 1818 102 2547 102 2547 -517 
C 2547 -883 2106 -1236 1466 -1236 
z
" transform="scale(0.015625)"/>
      <path id="CMR17-6e" d="M 2656 1954 
C 2656 2282 2592 2816 1837 2816 
C 1331 2816 1069 2424 973 2166 
L 966 2166 
L 966 2816 
L 211 2745 
L 211 2578 
C 589 2578 646 2540 646 2231 
L 646 443 
C 646 198 621 166 211 166 
L 211 0 
C 365 12 646 12 813 12 
C 979 12 1267 12 1421 0 
L 1421 166 
C 1011 166 986 192 986 443 
L 986 1678 
C 986 2269 1344 2713 1792 2713 
C 2266 2713 2317 2289 2317 1980 
L 2317 443 
C 2317 198 2291 166 1882 166 
L 1882 0 
C 2035 12 2317 12 2483 12 
C 2650 12 2938 12 3091 0 
L 3091 166 
C 2682 166 2656 192 2656 443 
L 2656 1954 
z
" transform="scale(0.015625)"/>
      <path id="CMR17-63" d="M 2234 2240 
C 2112 2240 1933 2240 1933 2015 
C 1933 1836 2080 1785 2163 1785 
C 2208 1785 2394 1804 2394 2028 
C 2394 2476 1958 2816 1466 2816 
C 787 2816 211 2201 211 1379 
C 211 521 813 -64 1466 -64 
C 2259 -64 2458 676 2458 747 
C 2458 773 2451 792 2406 792 
C 2362 792 2355 786 2330 702 
C 2163 180 1798 51 1523 51 
C 1114 51 621 431 621 1385 
C 621 2358 1094 2700 1472 2700 
C 1722 2700 2093 2582 2234 2240 
z
" transform="scale(0.015625)"/>
      <path id="CMR17-50" d="M 1267 2048 
L 2291 2048 
C 3117 2048 3718 2583 3718 3187 
C 3718 3791 3130 4352 2291 4352 
L 333 4352 
L 333 4185 
C 774 4185 845 4185 845 3899 
L 845 453 
C 845 166 774 166 333 166 
L 333 0 
C 518 12 858 12 1056 12 
C 1254 12 1594 12 1779 0 
L 1779 166 
C 1338 166 1267 166 1267 453 
L 1267 2048 
z
M 1254 2182 
L 1254 3937 
C 1254 4153 1267 4185 1523 4185 
L 2170 4185 
C 2995 4185 3232 3715 3232 3187 
C 3232 2608 2950 2182 2170 2182 
L 1254 2182 
z
" transform="scale(0.015625)"/>
      <path id="CMR17-46" d="M 3482 4339 
L 326 4339 
L 326 4172 
C 768 4172 838 4172 838 3883 
L 838 450 
C 838 166 768 166 326 166 
L 326 0 
C 512 12 870 12 1069 12 
C 1331 12 1638 12 1901 0 
L 1901 166 
L 1760 166 
C 1274 166 1261 229 1261 456 
L 1261 2073 
L 1837 2073 
C 2432 2073 2490 1865 2490 1334 
L 2605 1334 
L 2605 2991 
L 2490 2991 
C 2490 2451 2432 2240 1837 2240 
L 1261 2240 
L 1261 3922 
C 1261 4140 1274 4172 1530 4172 
L 2355 4172 
C 3322 4172 3430 3774 3520 2920 
L 3635 2920 
L 3482 4339 
z
" transform="scale(0.015625)"/>
      <path id="CMR17-2c" d="M 1011 102 
C 1024 44 1024 25 1024 -76 
C 1024 -451 896 -795 627 -1108 
C 595 -1140 595 -1152 595 -1165 
C 595 -1191 621 -1216 646 -1216 
C 685 -1216 1126 -776 1126 -82 
C 1126 128 1101 524 800 524 
C 659 524 538 428 538 262 
C 538 96 659 0 800 0 
C 877 0 960 32 1011 102 
z
" transform="scale(0.015625)"/>
      <path id="CMR17-78" d="M 1664 1491 
C 1856 1740 2074 2022 2253 2233 
C 2464 2476 2707 2579 2989 2585 
L 2989 2752 
C 2880 2745 2656 2739 2541 2739 
C 2368 2739 2170 2739 2022 2752 
L 2022 2585 
C 2112 2572 2163 2508 2163 2419 
C 2163 2304 2099 2233 2067 2188 
L 1594 1587 
L 1030 2323 
C 973 2393 973 2406 973 2438 
C 973 2515 1037 2579 1146 2585 
L 1146 2752 
C 992 2739 717 2739 557 2739 
C 384 2739 179 2739 38 2752 
L 38 2585 
C 384 2585 461 2560 614 2368 
L 1350 1414 
C 1363 1401 1395 1363 1395 1344 
C 1395 1318 838 633 768 544 
C 480 198 179 172 6 166 
L 6 0 
C 115 6 339 12 454 12 
C 582 12 864 12 979 0 
L 979 166 
C 941 172 838 185 838 332 
C 838 448 890 518 947 595 
L 1478 1248 
L 2035 524 
C 2086 454 2163 358 2163 313 
C 2163 224 2086 172 1984 166 
L 1984 0 
C 2138 12 2413 12 2573 12 
C 2746 12 2950 12 3091 0 
L 3091 166 
C 2771 166 2675 179 2522 377 
L 1664 1491 
z
" transform="scale(0.015625)"/>
      <path id="CMR17-64" d="M 1869 4345 
L 1869 4179 
C 2246 4179 2304 4141 2304 3843 
L 2304 2371 
C 2278 2403 2016 2816 1498 2816 
C 845 2816 211 2228 211 1376 
C 211 529 806 -64 1434 -64 
C 1978 -64 2259 361 2291 406 
L 2291 -64 
L 3066 -13 
L 3066 154 
C 2688 154 2630 193 2630 503 
L 2630 4416 
L 1869 4345 
z
M 2291 762 
C 2291 568 2176 393 2029 264 
C 1811 70 1594 38 1472 38 
C 1286 38 621 135 621 1369 
C 621 2636 1363 2713 1530 2713 
C 1824 2713 2061 2545 2208 2313 
C 2291 2177 2291 2157 2291 2041 
L 2291 762 
z
" transform="scale(0.015625)"/>
      <path id="CMMI12-67" d="M 2163 811 
C 2138 708 2125 683 2042 587 
C 1779 249 1510 128 1312 128 
C 1101 128 902 293 902 734 
C 902 1072 1094 1787 1235 2075 
C 1421 2432 1709 2687 1978 2687 
C 2400 2687 2483 2164 2483 2126 
L 2464 2036 
L 2163 811 
z
M 2560 2394 
C 2477 2579 2298 2816 1978 2816 
C 1280 2816 486 1941 486 989 
C 486 325 890 0 1299 0 
C 1638 0 1939 268 2054 396 
L 1914 -176 
C 1824 -520 1786 -677 1555 -896 
C 1293 -1152 1050 -1152 909 -1152 
C 717 -1152 557 -1140 397 -1090 
C 602 -1034 653 -858 653 -789 
C 653 -689 576 -589 435 -589 
C 282 -589 115 -714 115 -921 
C 115 -1178 378 -1280 922 -1280 
C 1747 -1280 2176 -758 2259 -420 
L 2970 2426 
C 2989 2502 2989 2515 2989 2528 
C 2989 2617 2918 2688 2822 2688 
C 2669 2688 2579 2560 2560 2388 
L 2560 2394 
z
" transform="scale(0.015625)"/>
      <path id="CMMI12-64" d="M 3219 4255 
C 3226 4281 3238 4319 3238 4351 
C 3238 4416 3174 4416 3162 4416 
C 3155 4416 2842 4390 2810 4383 
C 2701 4377 2605 4364 2490 4358 
C 2330 4345 2285 4339 2285 4223 
C 2285 4159 2336 4159 2426 4159 
C 2739 4159 2746 4103 2746 4040 
C 2746 4002 2733 3951 2726 3932 
L 2336 2394 
C 2266 2560 2093 2816 1760 2816 
C 1037 2816 256 1883 256 938 
C 256 306 627 -64 1062 -64 
C 1414 -64 1715 210 1894 421 
C 1958 44 2259 -64 2451 -64 
C 2643 -64 2797 51 2912 281 
C 3014 498 3104 887 3104 913 
C 3104 945 3078 970 3040 970 
C 2982 970 2976 938 2950 842 
C 2854 466 2733 64 2470 64 
C 2285 64 2272 230 2272 357 
C 2272 383 2272 517 2317 696 
L 3219 4255 
z
M 1926 759 
C 1894 651 1894 638 1805 517 
C 1664 338 1382 64 1082 64 
C 819 64 672 300 672 676 
C 672 1028 870 1743 992 2011 
C 1210 2458 1510 2687 1760 2687 
C 2182 2687 2266 2164 2266 2113 
C 2266 2107 2246 2024 2240 2011 
L 1926 759 
z
" transform="scale(0.015625)"/>
      <path id="CMMI12-50" d="M 1894 2022 
L 2970 2022 
C 3853 2022 4736 2673 4736 3400 
C 4736 3898 4314 4352 3507 4352 
L 1530 4352 
C 1408 4352 1350 4352 1350 4230 
C 1350 4166 1408 4166 1504 4166 
C 1894 4166 1894 4115 1894 4045 
C 1894 4032 1894 3994 1869 3898 
L 1005 471 
C 947 249 934 185 486 185 
C 365 185 301 185 301 70 
C 301 0 358 0 397 0 
C 518 0 646 12 768 12 
L 1517 12 
C 1638 12 1773 0 1894 0 
C 1946 0 2016 0 2016 121 
C 2016 185 1958 185 1862 185 
C 1478 185 1472 230 1472 293 
C 1472 325 1478 369 1485 401 
L 1894 2022 
z
M 2355 3917 
C 2413 4153 2438 4166 2688 4166 
L 3322 4166 
C 3802 4166 4198 4013 4198 3534 
C 4198 3369 4115 2826 3821 2533 
C 3712 2418 3405 2176 2822 2176 
L 1920 2176 
L 2355 3917 
z
" transform="scale(0.015625)"/>
      <path id="CMMI12-46" d="M 1901 2054 
L 2515 2054 
C 3002 2054 3040 1947 3040 1764 
C 3040 1683 3027 1595 2995 1456 
C 2982 1431 2976 1399 2976 1387 
C 2976 1343 3002 1318 3046 1318 
C 3098 1318 3104 1343 3130 1444 
L 3501 2929 
C 3501 2955 3482 2993 3437 2993 
C 3379 2993 3373 2968 3347 2858 
C 3213 2375 3085 2240 2528 2240 
L 1946 2240 
L 2362 3908 
C 2419 4134 2432 4153 2694 4153 
L 3552 4153 
C 4352 4153 4467 3915 4467 3457 
C 4467 3419 4467 3277 4448 3109 
C 4442 3084 4429 3000 4429 2974 
C 4429 2922 4461 2903 4499 2903 
C 4544 2903 4570 2929 4582 3045 
L 4717 4172 
C 4717 4191 4730 4255 4730 4268 
C 4730 4339 4672 4339 4557 4339 
L 1523 4339 
C 1402 4339 1338 4339 1338 4223 
C 1338 4153 1382 4153 1491 4153 
C 1888 4153 1888 4108 1888 4037 
C 1888 4005 1882 3979 1862 3908 
L 998 468 
C 941 248 928 185 480 185 
C 358 185 294 185 294 70 
C 294 0 352 0 390 0 
C 512 0 640 12 762 12 
L 1594 12 
C 1734 12 1888 0 2029 0 
C 2086 0 2163 0 2163 115 
C 2163 185 2125 185 1984 185 
C 1478 185 1466 229 1466 324 
C 1466 355 1478 405 1491 449 
L 1901 2054 
z
" transform="scale(0.015625)"/>
     </defs>
     <use xlink:href="#CMR17-4b" transform="scale(0.996264)"/>
     <use xlink:href="#CMR17-4c" transform="translate(71.674777 0) scale(0.996264)"/>
     <use xlink:href="#CMR17-44" transform="translate(159.132152 0) scale(0.996264)"/>
     <use xlink:href="#CMR17-69" transform="translate(229.525707 0) scale(0.996264)"/>
     <use xlink:href="#CMR17-76" transform="translate(254.396766 0) scale(0.996264)"/>
     <use xlink:href="#CMR17-65" transform="translate(300.087228 0) scale(0.996264)"/>
     <use xlink:href="#CMR17-72" transform="translate(340.572888 0) scale(0.996264)"/>
     <use xlink:href="#CMR17-67" transform="translate(375.853656 0) scale(0.996264)"/>
     <use xlink:href="#CMR17-65" transform="translate(421.544133 0) scale(0.996264)"/>
     <use xlink:href="#CMR17-6e" transform="translate(462.029794 0) scale(0.996264)"/>
     <use xlink:href="#CMR17-63" transform="translate(512.925163 0) scale(0.996264)"/>
     <use xlink:href="#CMR17-65" transform="translate(553.410824 0) scale(0.996264)"/>
     <use xlink:href="#CMR17-50" transform="translate(623.972451 0) scale(0.996264)"/>
     <use xlink:href="#CMR17-44" transform="translate(686.558751 0) scale(0.996264)"/>
     <use xlink:href="#CMR17-46" transform="translate(756.952307 0) scale(0.996264)"/>
     <use xlink:href="#CMR17-2c" transform="translate(816.936154 0) scale(0.996264)"/>
     <use xlink:href="#CMR17-46" transform="translate(871.883179 0) scale(0.996264)"/>
     <use xlink:href="#CMR17-69" transform="translate(931.867025 0) scale(0.996264)"/>
     <use xlink:href="#CMR17-78" transform="translate(956.738084 0) scale(0.996264)"/>
     <use xlink:href="#CMR17-65" transform="translate(1005.030999 0) scale(0.996264)"/>
     <use xlink:href="#CMR17-64" transform="translate(1045.51666 0) scale(0.996264)"/>
     <use xlink:href="#CMMI12-67" transform="translate(1126.487996 0) scale(0.996264)"/>
     <use xlink:href="#CMMI12-64" transform="translate(1173.198893 -14.943915) scale(0.697382)"/>
     <use xlink:href="#CMMI12-50" transform="translate(1208.681099 -14.943915) scale(0.697382)"/>
     <use xlink:href="#CMMI12-44" transform="translate(1262.178923 -14.943915) scale(0.697382)"/>
     <use xlink:href="#CMMI12-46" transform="translate(1320.771427 -14.943915) scale(0.697382)"/>
    </g>
   </g>
  </g>
  <g id="axes_2">
   <g id="patch_7">
    <path d="M 715.707094 339.890266 
L 1263.6 339.890266 
L 1263.6 58.882706 
L 715.707094 58.882706 
z
" style="fill: #ffffff"/>
   </g>
   <g id="matplotlib.axis_3">
    <g id="xtick_7">
     <g id="line2d_16">
      <g>
       <use xlink:href="#m19348a9eb2" x="740.611317" y="339.890266" style="stroke: #000000; stroke-width: 0.8"/>
      </g>
     </g>
     <g id="text_16">
      <!-- $\mathdefault{0}$ -->
      <g transform="translate(733.757745 367.645762) scale(0.3 -0.3)">
       <use xlink:href="#CMR17-30" transform="scale(0.996264)"/>
      </g>
     </g>
    </g>
    <g id="xtick_8">
     <g id="line2d_17">
      <g>
       <use xlink:href="#m19348a9eb2" x="840.228209" y="339.890266" style="stroke: #000000; stroke-width: 0.8"/>
      </g>
     </g>
     <g id="text_17">
      <!-- $\mathdefault{20}$ -->
      <g transform="translate(826.521066 367.645762) scale(0.3 -0.3)">
       <use xlink:href="#CMR17-32" transform="scale(0.996264)"/>
       <use xlink:href="#CMR17-30" transform="translate(45.690477 0) scale(0.996264)"/>
      </g>
     </g>
    </g>
    <g id="xtick_9">
     <g id="line2d_18">
      <g>
       <use xlink:href="#m19348a9eb2" x="939.845101" y="339.890266" style="stroke: #000000; stroke-width: 0.8"/>
      </g>
     </g>
     <g id="text_18">
      <!-- $\mathdefault{40}$ -->
      <g transform="translate(926.137958 367.645762) scale(0.3 -0.3)">
       <use xlink:href="#CMR17-34" transform="scale(0.996264)"/>
       <use xlink:href="#CMR17-30" transform="translate(45.690477 0) scale(0.996264)"/>
      </g>
     </g>
    </g>
    <g id="xtick_10">
     <g id="line2d_19">
      <g>
       <use xlink:href="#m19348a9eb2" x="1039.461993" y="339.890266" style="stroke: #000000; stroke-width: 0.8"/>
      </g>
     </g>
     <g id="text_19">
      <!-- $\mathdefault{60}$ -->
      <g transform="translate(1025.75485 367.645762) scale(0.3 -0.3)">
       <use xlink:href="#CMR17-36" transform="scale(0.996264)"/>
       <use xlink:href="#CMR17-30" transform="translate(45.690477 0) scale(0.996264)"/>
      </g>
     </g>
    </g>
    <g id="xtick_11">
     <g id="line2d_20">
      <g>
       <use xlink:href="#m19348a9eb2" x="1139.078885" y="339.890266" style="stroke: #000000; stroke-width: 0.8"/>
      </g>
     </g>
     <g id="text_20">
      <!-- $\mathdefault{80}$ -->
      <g transform="translate(1125.371742 367.645762) scale(0.3 -0.3)">
       <use xlink:href="#CMR17-38" transform="scale(0.996264)"/>
       <use xlink:href="#CMR17-30" transform="translate(45.690477 0) scale(0.996264)"/>
      </g>
     </g>
    </g>
    <g id="xtick_12">
     <g id="line2d_21">
      <g>
       <use xlink:href="#m19348a9eb2" x="1238.695777" y="339.890266" style="stroke: #000000; stroke-width: 0.8"/>
      </g>
     </g>
     <g id="text_21">
      <!-- $\mathdefault{100}$ -->
      <g transform="translate(1218.135062 367.645762) scale(0.3 -0.3)">
       <use xlink:href="#CMR17-31" transform="scale(0.996264)"/>
       <use xlink:href="#CMR17-30" transform="translate(45.690477 0) scale(0.996264)"/>
       <use xlink:href="#CMR17-30" transform="translate(91.380954 0) scale(0.996264)"/>
      </g>
     </g>
    </g>
    <g id="text_22">
     <!-- $\nu$ -->
     <g transform="translate(983.628738 394.755466) scale(0.25 -0.25)">
      <defs>
       <path id="CMMI12-17" d="M 1408 2751 
C 1408 2777 1389 2816 1338 2816 
C 1293 2816 691 2758 595 2751 
C 525 2745 461 2739 461 2623 
C 461 2559 512 2559 602 2559 
C 902 2559 922 2515 922 2445 
C 922 2419 909 2343 902 2317 
L 339 64 
C 339 38 358 0 403 0 
L 538 0 
C 627 0 1600 230 2349 996 
C 3174 1845 3290 2630 3290 2655 
C 3290 2758 3206 2816 3123 2816 
C 2938 2816 2893 2643 2880 2598 
C 2502 1264 1626 472 774 192 
L 1408 2751 
z
" transform="scale(0.015625)"/>
      </defs>
      <use xlink:href="#CMMI12-17" transform="scale(0.996264)"/>
     </g>
    </g>
   </g>
   <g id="matplotlib.axis_4">
    <g id="ytick_4">
     <g id="line2d_22">
      <g>
       <use xlink:href="#mcda6d4e5a7" x="715.707094" y="326.275621" style="stroke: #000000; stroke-width: 0.8"/>
      </g>
     </g>
     <g id="text_23">
      <!-- $\mathdefault{0}$ -->
      <g transform="translate(694.999951 336.653368) scale(0.3 -0.3)">
       <use xlink:href="#CMR17-30" transform="scale(0.996264)"/>
      </g>
     </g>
    </g>
    <g id="ytick_5">
     <g id="line2d_23">
      <g>
       <use xlink:href="#mcda6d4e5a7" x="715.707094" y="251.280227" style="stroke: #000000; stroke-width: 0.8"/>
      </g>
     </g>
     <g id="text_24">
      <!-- $\mathdefault{1}$ -->
      <g transform="translate(694.999951 261.657975) scale(0.3 -0.3)">
       <use xlink:href="#CMR17-31" transform="scale(0.996264)"/>
      </g>
     </g>
    </g>
    <g id="ytick_6">
     <g id="line2d_24">
      <g>
       <use xlink:href="#mcda6d4e5a7" x="715.707094" y="176.284833" style="stroke: #000000; stroke-width: 0.8"/>
      </g>
     </g>
     <g id="text_25">
      <!-- $\mathdefault{2}$ -->
      <g transform="translate(694.999951 186.662581) scale(0.3 -0.3)">
       <use xlink:href="#CMR17-32" transform="scale(0.996264)"/>
      </g>
     </g>
    </g>
    <g id="ytick_7">
     <g id="line2d_25">
      <g>
       <use xlink:href="#mcda6d4e5a7" x="715.707094" y="101.289439" style="stroke: #000000; stroke-width: 0.8"/>
      </g>
     </g>
     <g id="text_26">
      <!-- $\mathdefault{3}$ -->
      <g transform="translate(694.999951 111.667187) scale(0.3 -0.3)">
       <defs>
        <path id="CMR17-33" d="M 1414 2176 
C 1984 2176 2234 1673 2234 1094 
C 2234 322 1824 25 1453 25 
C 1114 25 563 193 390 691 
C 422 678 454 678 486 678 
C 640 678 755 780 755 947 
C 755 1132 614 1216 486 1216 
C 378 1216 211 1164 211 927 
C 211 335 787 -128 1466 -128 
C 2176 -128 2720 432 2720 1087 
C 2720 1718 2208 2176 1600 2246 
C 2086 2347 2554 2776 2554 3353 
C 2554 3856 2048 4224 1472 4224 
C 890 4224 378 3862 378 3347 
C 378 3123 544 3084 627 3084 
C 762 3084 877 3167 877 3334 
C 877 3500 762 3584 627 3584 
C 602 3584 570 3584 544 3571 
C 730 3999 1235 4076 1459 4076 
C 1683 4076 2106 3966 2106 3347 
C 2106 3167 2080 2851 1862 2574 
C 1670 2329 1453 2316 1242 2297 
C 1210 2297 1062 2284 1037 2284 
C 992 2278 966 2272 966 2227 
C 966 2182 973 2176 1101 2176 
L 1414 2176 
z
" transform="scale(0.015625)"/>
       </defs>
       <use xlink:href="#CMR17-33" transform="scale(0.996264)"/>
      </g>
     </g>
    </g>
    <g id="text_27">
     <!-- $D_{KL}(\nu)$ -->
     <g transform="translate(684.794142 239.085629) rotate(-90) scale(0.25 -0.25)">
      <use xlink:href="#CMMI12-44" transform="scale(0.996264)"/>
      <use xlink:href="#CMMI12-4b" transform="translate(80.99423 -14.943915) scale(0.697382)"/>
      <use xlink:href="#CMMI12-4c" transform="translate(144.097133 -14.943915) scale(0.697382)"/>
      <use xlink:href="#CMR17-28" transform="translate(191.054678 0) scale(0.996264)"/>
      <use xlink:href="#CMMI12-17" transform="translate(226.335446 0) scale(0.996264)"/>
      <use xlink:href="#CMR17-29" transform="translate(280.818239 0) scale(0.996264)"/>
     </g>
    </g>
   </g>
   <g id="line2d_26">
    <path d="M 740.611317 270.114769 
L 744.533242 71.655777 
L 748.455167 136.687468 
L 752.377091 215.249449 
L 756.299016 252.880634 
L 760.220941 273.71243 
L 764.142866 287.221383 
L 768.064791 296.436828 
L 775.908641 311.0835 
L 779.830566 317.420867 
L 783.75249 321.501045 
L 787.674415 323.71192 
L 791.59634 324.889367 
L 795.518265 325.528255 
L 799.44019 325.868776 
L 807.28404 326.146754 
L 822.971739 326.291814 
L 854.347138 326.359328 
L 1238.695777 326.726127 
L 1238.695777 326.726127 
" clip-path="url(#p3d6b616ecf)" style="fill: none; stroke: #1f77b4; stroke-width: 1.5; stroke-linecap: square"/>
   </g>
   <g id="line2d_27">
    <path d="M 760.534695 339.890266 
L 760.534695 64.879427 
" clip-path="url(#p3d6b616ecf)" style="fill: none; stroke-dasharray: 3.7,1.6; stroke-dashoffset: 0; stroke: #1f77b4"/>
   </g>
   <g id="line2d_28">
    <path d="M 715.707094 300.813636 
L 1263.6 300.813636 
" clip-path="url(#p3d6b616ecf)" style="fill: none; stroke-dasharray: 3.7,1.6; stroke-dashoffset: 0; stroke: #ff0000"/>
   </g>
   <g id="line2d_29">
    <path d="M 740.611317 292.978371 
L 744.533242 142.582351 
L 748.455167 165.759626 
L 752.377091 232.852649 
L 756.299016 265.496374 
L 760.220941 282.058995 
L 764.142866 292.607477 
L 768.064791 300.003339 
L 771.986716 305.160487 
L 775.908641 308.755604 
L 779.830566 311.25174 
L 783.75249 313.077381 
L 787.674415 314.584384 
L 791.59634 315.906473 
L 795.518265 317.0241 
L 807.28404 319.630588 
L 819.049814 322.905158 
L 822.971739 323.689184 
L 826.893664 324.302597 
L 830.815589 324.771291 
L 838.659439 325.35286 
L 850.425214 325.791605 
L 866.112913 326.098588 
L 893.566387 326.312201 
L 948.473336 326.476243 
L 1238.695777 327.117196 
L 1238.695777 327.117196 
" clip-path="url(#p3d6b616ecf)" style="fill: none; stroke: #ff7f0e; stroke-width: 1.5; stroke-linecap: square"/>
   </g>
   <g id="line2d_30">
    <path d="M 790.419763 339.890266 
L 790.419763 296.083231 
" clip-path="url(#p3d6b616ecf)" style="fill: none; stroke-dasharray: 3.7,1.6; stroke-dashoffset: 0; stroke: #ff7f0e"/>
   </g>
   <g id="line2d_31">
    <path d="M 740.611317 285.223838 
L 744.533242 125.392617 
L 748.455167 161.935914 
L 752.377091 233.244764 
L 756.299016 265.659053 
L 760.220941 281.986982 
L 764.142866 292.506846 
L 768.064791 299.808362 
L 771.986716 304.756369 
L 775.908641 308.170972 
L 779.830566 310.611701 
L 783.75249 312.45414 
L 787.674415 313.949964 
L 791.59634 315.209108 
L 795.518265 316.282644 
L 799.44019 317.182031 
L 803.362115 317.909265 
L 811.205965 318.966614 
L 830.815589 320.954448 
L 838.659439 321.483343 
L 862.190988 322.654715 
L 877.878688 323.13863 
L 901.410237 323.647465 
L 948.473336 324.503174 
L 999.458359 325.528179 
L 1034.755683 325.985102 
L 1081.818782 326.33781 
L 1152.41343 326.605625 
L 1238.695777 326.813004 
L 1238.695777 326.813004 
" clip-path="url(#p3d6b616ecf)" style="fill: none; stroke: #2ca02c; stroke-width: 1.5; stroke-linecap: square"/>
   </g>
   <g id="line2d_32">
    <path d="M 865.132432 339.890266 
L 865.132432 326.32274 
" clip-path="url(#p3d6b616ecf)" style="fill: none; stroke-dasharray: 3.7,1.6; stroke-dashoffset: 0; stroke: #2ca02c"/>
   </g>
   <g id="patch_8">
    <path d="M 715.707094 339.890266 
L 715.707094 58.882706 
" style="fill: none; stroke: #000000; stroke-width: 0.8; stroke-linejoin: miter; stroke-linecap: square"/>
   </g>
   <g id="patch_9">
    <path d="M 1263.6 339.890266 
L 1263.6 58.882706 
" style="fill: none; stroke: #000000; stroke-width: 0.8; stroke-linejoin: miter; stroke-linecap: square"/>
   </g>
   <g id="patch_10">
    <path d="M 715.707094 339.890266 
L 1263.6 339.890266 
" style="fill: none; stroke: #000000; stroke-width: 0.8; stroke-linejoin: miter; stroke-linecap: square"/>
   </g>
   <g id="patch_11">
    <path d="M 715.707094 58.882706 
L 1263.6 58.882706 
" style="fill: none; stroke: #000000; stroke-width: 0.8; stroke-linejoin: miter; stroke-linecap: square"/>
   </g>
   <g id="text_28">
    <!-- $\nu = 4$ -->
    <g style="fill: #1f77b4" transform="translate(774.4215 266.504228) rotate(-90) scale(0.2 -0.2)">
     <use xlink:href="#CMMI12-17" transform="scale(0.996264)"/>
     <use xlink:href="#CMR17-3d" transform="translate(82.156802 0) scale(0.996264)"/>
     <use xlink:href="#CMR17-34" transform="translate(181.545599 0) scale(0.996264)"/>
    </g>
   </g>
   <g id="text_29">
    <!-- $D_{KL}\approx 10\%$ -->
    <g style="fill: #ff0000" transform="translate(1139.078885 289.564327) scale(0.2 -0.2)">
     <defs>
      <path id="CMSY10-19" d="M 4621 2912 
C 4621 3046 4576 3104 4531 3104 
C 4506 3104 4448 3078 4442 2931 
C 4416 2483 3968 2214 3552 2214 
C 3181 2214 2861 2417 2528 2647 
C 2182 2880 1837 3110 1421 3110 
C 826 3110 352 2653 352 2054 
C 352 1913 403 1862 442 1862 
C 506 1862 531 1984 531 2009 
C 563 2555 1088 2752 1421 2752 
C 1792 2752 2112 2548 2445 2319 
C 2790 2086 3136 1856 3552 1856 
C 4147 1856 4621 2312 4621 2912 
z
M 4621 1395 
C 4621 1580 4544 1593 4531 1593 
C 4506 1593 4448 1561 4442 1420 
C 4416 972 3968 704 3552 704 
C 3181 704 2861 907 2528 1136 
C 2182 1369 1837 1600 1421 1600 
C 826 1600 352 1143 352 543 
C 352 403 403 351 442 351 
C 506 351 531 473 531 499 
C 563 1044 1088 1241 1421 1241 
C 1792 1241 2112 1038 2445 808 
C 2790 575 3136 345 3552 345 
C 4160 345 4621 822 4621 1395 
z
" transform="scale(0.015625)"/>
      <path id="CMR17-25" d="M 4640 928 
C 4640 1670 4275 2214 3846 2214 
C 3411 2214 2970 1708 2970 928 
C 2970 147 3405 -359 3846 -359 
C 4275 -359 4640 179 4640 928 
z
M 3853 -256 
C 3686 -256 3270 -103 3270 928 
C 3270 1964 3686 2112 3853 2112 
C 4205 2112 4525 1606 4525 928 
C 4525 249 4205 -256 3853 -256 
z
M 4083 4572 
C 4128 4644 4134 4651 4134 4684 
C 4134 4761 4077 4800 4026 4800 
C 3962 4800 3936 4755 3891 4703 
C 3520 4155 3008 4096 2746 4096 
C 2106 4096 1715 4479 1594 4598 
C 1510 4677 1389 4800 1171 4800 
C 736 4800 294 4281 294 3496 
C 294 2718 730 2214 1171 2214 
C 1600 2214 1965 2750 1965 3496 
C 1965 3936 1830 4241 1811 4281 
C 2202 4025 2586 3993 2752 3993 
C 3162 3993 3456 4148 3616 4261 
L 3622 4254 
L 858 -122 
C 800 -212 800 -224 800 -244 
C 800 -314 858 -359 915 -359 
C 973 -359 992 -327 1037 -256 
L 4083 4572 
z
M 1178 2316 
C 1011 2316 595 2469 595 3496 
C 595 4545 1011 4697 1178 4697 
C 1530 4697 1850 4175 1850 3496 
C 1850 2820 1530 2316 1178 2316 
z
" transform="scale(0.015625)"/>
     </defs>
     <use xlink:href="#CMMI12-44" transform="scale(0.996264)"/>
     <use xlink:href="#CMMI12-4b" transform="translate(80.99423 -14.943915) scale(0.697382)"/>
     <use xlink:href="#CMMI12-4c" transform="translate(144.097133 -14.943915) scale(0.697382)"/>
     <use xlink:href="#CMSY10-19" transform="translate(218.728687 0) scale(0.996264)"/>
     <use xlink:href="#CMR17-31" transform="translate(323.890163 0) scale(0.996264)"/>
     <use xlink:href="#CMR17-30" transform="translate(369.580641 0) scale(0.996264)"/>
     <use xlink:href="#CMR17-25" transform="translate(415.271118 0) scale(0.996264)"/>
    </g>
   </g>
   <g id="text_30">
    <!-- $\nu = 10$ -->
    <g style="fill: #ff7f0e" transform="translate(804.306568 271.073276) rotate(-90) scale(0.2 -0.2)">
     <use xlink:href="#CMMI12-17" transform="scale(0.996264)"/>
     <use xlink:href="#CMR17-3d" transform="translate(82.156802 0) scale(0.996264)"/>
     <use xlink:href="#CMR17-31" transform="translate(181.545599 0) scale(0.996264)"/>
     <use xlink:href="#CMR17-30" transform="translate(227.236076 0) scale(0.996264)"/>
    </g>
   </g>
   <g id="text_31">
    <!-- $\nu = 25$ -->
    <g style="fill: #2ca02c" transform="translate(879.019237 271.073276) rotate(-90) scale(0.2 -0.2)">
     <use xlink:href="#CMMI12-17" transform="scale(0.996264)"/>
     <use xlink:href="#CMR17-3d" transform="translate(82.156802 0) scale(0.996264)"/>
     <use xlink:href="#CMR17-32" transform="translate(181.545599 0) scale(0.996264)"/>
     <use xlink:href="#CMR17-35" transform="translate(227.236076 0) scale(0.996264)"/>
    </g>
   </g>
   <g id="text_32">
    <!-- KL Divergence Re$M(\nu,\mu^2)$ -->
    <g transform="translate(853.025772 52.676897) scale(0.25 -0.25)">
     <defs>
      <path id="CMR17-52" d="M 2509 2156 
C 3117 2278 3629 2689 3629 3203 
C 3629 3806 2950 4352 2054 4352 
L 333 4352 
L 333 4185 
C 774 4185 845 4185 845 3896 
L 845 428 
C 845 140 774 140 333 140 
L 333 -26 
C 518 -13 851 -13 1050 -13 
C 1248 -13 1581 -13 1766 -26 
L 1766 140 
C 1325 140 1254 140 1254 428 
L 1254 2112 
L 2003 2112 
C 2368 2112 2573 1964 2662 1881 
C 2918 1632 2918 1459 2918 1024 
C 2918 595 2918 377 3110 160 
C 3354 -103 3680 -128 3821 -128 
C 4294 -128 4365 403 4365 512 
C 4365 550 4365 595 4307 595 
C 4256 595 4250 556 4250 531 
C 4218 115 4032 -26 3834 -26 
C 3482 -26 3443 377 3405 768 
C 3386 902 3373 998 3360 1139 
C 3322 1459 3270 1926 2509 2156 
z
M 1984 2214 
L 1254 2214 
L 1254 3935 
C 1254 4153 1267 4185 1523 4185 
L 1990 4185 
C 2522 4185 3142 3999 3142 3203 
C 3142 2374 2464 2214 1984 2214 
z
" transform="scale(0.015625)"/>
      <path id="CMMI12-4d" d="M 5811 3886 
C 5869 4102 5882 4166 6336 4166 
C 6458 4166 6515 4166 6515 4287 
C 6515 4352 6470 4352 6349 4352 
L 5581 4352 
C 5421 4352 5414 4345 5344 4243 
L 3008 567 
L 2528 4211 
C 2509 4352 2502 4352 2336 4352 
L 1542 4352 
C 1421 4352 1363 4352 1363 4230 
C 1363 4166 1421 4166 1517 4166 
C 1907 4166 1907 4115 1907 4045 
C 1907 4032 1907 3994 1882 3898 
L 1062 650 
C 986 344 838 204 410 185 
C 390 185 314 179 314 70 
C 314 0 371 0 397 0 
C 525 0 851 12 979 12 
L 1286 12 
C 1376 12 1485 0 1574 0 
C 1619 0 1690 0 1690 121 
C 1690 179 1626 185 1600 185 
C 1389 191 1184 230 1184 459 
C 1184 523 1184 529 1210 618 
L 2093 4128 
L 2099 4128 
L 2630 172 
C 2650 19 2656 0 2714 0 
C 2784 0 2816 51 2848 108 
L 5421 4159 
L 5427 4159 
L 4499 472 
C 4442 249 4429 185 3981 185 
C 3859 185 3795 185 3795 70 
C 3795 0 3853 0 3891 0 
C 4000 0 4128 12 4237 12 
L 4992 12 
C 5101 12 5235 0 5344 0 
C 5395 0 5466 0 5466 121 
C 5466 185 5408 185 5312 185 
C 4922 185 4922 236 4922 300 
C 4922 306 4922 351 4934 402 
L 5811 3886 
z
" transform="scale(0.015625)"/>
      <path id="CMMI12-3b" d="M 1248 -26 
C 1248 345 1126 620 864 620 
C 659 620 557 454 557 313 
C 557 172 653 0 870 0 
C 954 0 1024 25 1082 83 
C 1094 96 1101 96 1107 96 
C 1120 96 1120 6 1120 -26 
C 1120 -233 1082 -642 710 -1051 
C 640 -1127 640 -1140 640 -1152 
C 640 -1184 672 -1216 704 -1216 
C 755 -1216 1248 -749 1248 -26 
z
" transform="scale(0.015625)"/>
      <path id="CMMI12-16" d="M 922 140 
C 1082 -7 1318 -64 1536 -64 
C 1946 -64 2227 210 2374 408 
C 2438 70 2707 -64 2931 -64 
C 3123 -64 3277 51 3392 281 
C 3494 498 3584 887 3584 913 
C 3584 944 3558 970 3520 970 
C 3462 970 3456 938 3430 842 
C 3334 466 3213 64 2950 64 
C 2765 64 2752 229 2752 357 
C 2752 504 2810 734 2854 925 
L 3034 1615 
C 3059 1736 3130 2023 3162 2138 
C 3200 2291 3270 2566 3270 2591 
C 3270 2687 3194 2752 3098 2752 
C 3040 2752 2906 2726 2854 2534 
L 2406 759 
C 2374 632 2374 619 2291 517 
C 2214 408 1965 64 1562 64 
C 1203 64 1088 325 1088 625 
C 1088 811 1146 1034 1171 1143 
L 1459 2292 
C 1491 2413 1542 2617 1542 2656 
C 1542 2758 1459 2816 1376 2816 
C 1318 2816 1178 2796 1126 2592 
L 198 -1085 
C 192 -1116 179 -1154 179 -1191 
C 179 -1287 256 -1351 352 -1351 
C 538 -1351 576 -1204 621 -1029 
L 922 140 
z
" transform="scale(0.015625)"/>
     </defs>
     <use xlink:href="#CMR17-4b" transform="scale(0.996264)"/>
     <use xlink:href="#CMR17-4c" transform="translate(71.674777 0) scale(0.996264)"/>
     <use xlink:href="#CMR17-44" transform="translate(159.132152 0) scale(0.996264)"/>
     <use xlink:href="#CMR17-69" transform="translate(229.525707 0) scale(0.996264)"/>
     <use xlink:href="#CMR17-76" transform="translate(254.396766 0) scale(0.996264)"/>
     <use xlink:href="#CMR17-65" transform="translate(300.087228 0) scale(0.996264)"/>
     <use xlink:href="#CMR17-72" transform="translate(340.572888 0) scale(0.996264)"/>
     <use xlink:href="#CMR17-67" transform="translate(375.853656 0) scale(0.996264)"/>
     <use xlink:href="#CMR17-65" transform="translate(421.544133 0) scale(0.996264)"/>
     <use xlink:href="#CMR17-6e" transform="translate(462.029794 0) scale(0.996264)"/>
     <use xlink:href="#CMR17-63" transform="translate(512.925163 0) scale(0.996264)"/>
     <use xlink:href="#CMR17-65" transform="translate(553.410824 0) scale(0.996264)"/>
     <use xlink:href="#CMR17-52" transform="translate(623.972451 0) scale(0.996264)"/>
     <use xlink:href="#CMR17-65" transform="translate(691.763553 0) scale(0.996264)"/>
     <use xlink:href="#CMMI12-4d" transform="translate(732.249213 0) scale(0.996264)"/>
     <use xlink:href="#CMR17-28" transform="translate(837.029292 0) scale(0.996264)"/>
     <use xlink:href="#CMMI12-17" transform="translate(872.31006 0) scale(0.996264)"/>
     <use xlink:href="#CMMI12-3b" transform="translate(921.373417 0) scale(0.996264)"/>
     <use xlink:href="#CMMI12-16" transform="translate(965.075 0) scale(0.996264)"/>
     <use xlink:href="#CMR17-32" transform="translate(1023.766421 36.153639) scale(0.697382)"/>
     <use xlink:href="#CMR17-29" transform="translate(1056.247735 0) scale(0.996264)"/>
    </g>
   </g>
   <g id="legend_1">
    <g id="patch_12">
     <path d="M 973.975542 208.545001 
L 1246.1 208.545001 
Q 1251.1 208.545001 1251.1 203.545001 
L 1251.1 76.382706 
Q 1251.1 71.382706 1246.1 71.382706 
L 973.975542 71.382706 
Q 968.975542 71.382706 968.975542 76.382706 
L 968.975542 203.545001 
Q 968.975542 208.545001 973.975542 208.545001 
z
" style="fill: #ffffff; opacity: 0.8; stroke: #cccccc; stroke-linejoin: miter"/>
    </g>
    <g id="line2d_33">
     <path d="M 978.975542 92.909603 
L 1003.975542 92.909603 
L 1028.975542 92.909603 
" style="fill: none; stroke: #1f77b4; stroke-width: 1.5; stroke-linecap: square"/>
    </g>
    <g id="text_33">
     <!-- {$K_{log-RBF}^{\sigma=18.00}$} $\nu_{max}$={4} -->
     <g transform="translate(1048.975542 101.659603) scale(0.25 -0.25)">
      <defs>
       <path id="CMMI12-1b" d="M 3251 2406 
C 3334 2406 3546 2406 3546 2611 
C 3546 2752 3424 2752 3309 2752 
L 1894 2752 
C 934 2752 243 1685 243 932 
C 243 389 595 -64 1171 -64 
C 1926 -64 2752 746 2752 1704 
C 2752 1953 2694 2195 2541 2406 
L 3251 2406 
z
M 1178 64 
C 851 64 614 312 614 753 
C 614 1136 845 2406 1786 2406 
C 2061 2406 2368 2272 2368 1780 
C 2368 1557 2266 1021 2042 651 
C 1811 274 1466 64 1178 64 
z
" transform="scale(0.015625)"/>
       <path id="CMMI12-6c" d="M 1626 4255 
C 1632 4281 1645 4319 1645 4351 
C 1645 4416 1581 4416 1568 4416 
C 1562 4416 1331 4396 1216 4383 
C 1107 4377 1011 4364 896 4358 
C 742 4345 698 4339 698 4223 
C 698 4159 762 4159 826 4159 
C 1152 4159 1152 4102 1152 4039 
C 1152 4013 1152 4001 1120 3886 
L 326 731 
C 307 661 294 610 294 509 
C 294 191 531 -64 858 -64 
C 1069 -64 1210 76 1312 273 
C 1421 483 1510 884 1510 909 
C 1510 941 1485 967 1446 967 
C 1389 967 1382 935 1357 839 
C 1242 401 1126 64 870 64 
C 678 64 678 267 678 356 
C 678 382 678 515 723 693 
L 1626 4255 
z
" transform="scale(0.015625)"/>
       <path id="CMMI12-6f" d="M 2918 1755 
C 2918 2362 2522 2816 1939 2816 
C 1094 2816 262 1896 262 996 
C 262 389 659 -64 1242 -64 
C 2093 -64 2918 855 2918 1755 
z
M 1248 64 
C 928 64 691 319 691 766 
C 691 1060 845 1711 1024 2030 
C 1312 2522 1670 2687 1933 2687 
C 2246 2687 2490 2432 2490 1985 
C 2490 1730 2355 1047 2112 657 
C 1850 230 1498 64 1248 64 
z
" transform="scale(0.015625)"/>
       <path id="CMSY10-0" d="M 4218 1472 
C 4326 1472 4442 1472 4442 1600 
C 4442 1728 4326 1728 4218 1728 
L 755 1728 
C 646 1728 531 1728 531 1600 
C 531 1472 646 1472 755 1472 
L 4218 1472 
z
" transform="scale(0.015625)"/>
       <path id="CMMI12-52" d="M 2355 3917 
C 2413 4153 2438 4166 2688 4166 
L 3149 4166 
C 3699 4166 4109 4000 4109 3503 
C 4109 3177 3942 2240 2656 2240 
L 1933 2240 
L 2355 3917 
z
M 3245 2163 
C 4038 2335 4659 2846 4659 3394 
C 4659 3892 4154 4352 3264 4352 
L 1530 4352 
C 1402 4352 1344 4352 1344 4230 
C 1344 4166 1389 4166 1510 4166 
C 1894 4166 1894 4115 1894 4045 
C 1894 4032 1894 3994 1869 3898 
L 1005 475 
C 947 253 934 190 493 190 
C 346 190 301 190 301 69 
C 301 6 371 6 390 6 
C 506 6 640 19 762 19 
L 1517 19 
C 1632 19 1766 6 1882 6 
C 1933 6 2003 6 2003 126 
C 2003 190 1946 190 1850 190 
C 1459 190 1459 241 1459 304 
C 1459 310 1459 355 1472 405 
L 1901 2112 
L 2669 2112 
C 3277 2112 3392 1731 3392 1522 
C 3392 1426 3328 1179 3283 1014 
C 3213 723 3194 653 3194 532 
C 3194 82 3565 -128 3994 -128 
C 4512 -128 4736 501 4736 589 
C 4736 634 4704 653 4666 653 
C 4614 653 4602 615 4589 564 
C 4435 114 4173 0 4013 0 
C 3853 0 3750 69 3750 355 
C 3750 507 3827 1084 3834 1116 
C 3866 1350 3866 1376 3866 1426 
C 3866 1889 3488 2086 3245 2163 
z
" transform="scale(0.015625)"/>
       <path id="CMMI12-42" d="M 2342 3915 
C 2400 4153 2426 4166 2675 4166 
L 3507 4166 
C 4230 4166 4230 3547 4230 3489 
C 4230 2967 3712 2304 2867 2304 
L 1946 2304 
L 2342 3915 
z
M 3424 2252 
C 4122 2381 4755 2871 4755 3463 
C 4755 3966 4314 4352 3590 4352 
L 1536 4352 
C 1414 4352 1357 4352 1357 4230 
C 1357 4166 1414 4166 1510 4166 
C 1901 4166 1901 4114 1901 4043 
C 1901 4031 1901 3992 1875 3895 
L 1011 469 
C 954 248 941 185 493 185 
C 371 185 307 185 307 70 
C 307 0 346 0 474 0 
L 2669 0 
C 3648 0 4403 733 4403 1369 
C 4403 1886 3942 2201 3424 2252 
z
M 2515 185 
L 1651 185 
C 1562 185 1549 185 1510 191 
C 1440 198 1434 210 1434 261 
C 1434 305 1446 343 1459 399 
L 1907 2176 
L 3110 2176 
C 3866 2176 3866 1483 3866 1432 
C 3866 828 3309 185 2515 185 
z
" transform="scale(0.015625)"/>
       <path id="CMMI12-6d" d="M 1318 1870 
C 1331 1909 1491 2228 1728 2432 
C 1894 2585 2112 2687 2362 2687 
C 2618 2687 2707 2496 2707 2241 
C 2707 2202 2707 2075 2630 1775 
L 2470 1117 
C 2419 925 2298 453 2285 383 
C 2259 287 2221 121 2221 95 
C 2221 6 2291 -64 2387 -64 
C 2579 -64 2611 83 2669 313 
L 3053 1838 
C 3066 1890 3398 2687 4102 2687 
C 4358 2687 4448 2496 4448 2241 
C 4448 1883 4198 1187 4058 804 
C 4000 651 3968 568 3968 453 
C 3968 166 4166 -64 4474 -64 
C 5069 -64 5293 874 5293 913 
C 5293 945 5267 970 5229 970 
C 5171 970 5165 951 5133 842 
C 4986 332 4749 64 4493 64 
C 4429 64 4326 70 4326 274 
C 4326 440 4403 645 4429 715 
C 4544 1021 4832 1775 4832 2145 
C 4832 2528 4608 2816 4122 2816 
C 3693 2816 3347 2573 3091 2196 
C 3072 2541 2861 2816 2381 2816 
C 1811 2816 1510 2413 1395 2253 
C 1376 2617 1114 2816 832 2816 
C 646 2816 499 2726 378 2483 
C 262 2253 173 1864 173 1838 
C 173 1813 198 1781 243 1781 
C 294 1781 301 1787 339 1934 
C 435 2311 557 2687 813 2687 
C 960 2687 1011 2585 1011 2394 
C 1011 2253 947 2004 902 1807 
L 723 1117 
C 698 996 627 708 595 593 
C 550 427 480 127 480 95 
C 480 6 550 -64 646 -64 
C 723 -64 813 -26 864 70 
C 877 102 934 325 966 453 
L 1107 1028 
L 1318 1870 
z
" transform="scale(0.015625)"/>
       <path id="CMMI12-61" d="M 1926 759 
C 1894 651 1894 638 1805 517 
C 1664 338 1382 64 1082 64 
C 819 64 672 300 672 676 
C 672 1028 870 1743 992 2011 
C 1210 2458 1510 2687 1760 2687 
C 2182 2687 2266 2164 2266 2113 
C 2266 2107 2246 2024 2240 2011 
L 1926 759 
z
M 2336 2394 
C 2266 2560 2093 2816 1760 2816 
C 1037 2816 256 1883 256 938 
C 256 306 627 -64 1062 -64 
C 1414 -64 1715 210 1894 421 
C 1958 44 2259 -64 2451 -64 
C 2643 -64 2797 51 2912 280 
C 3014 496 3104 885 3104 910 
C 3104 942 3078 968 3040 968 
C 2982 968 2976 936 2950 840 
C 2854 465 2733 64 2470 64 
C 2285 64 2272 229 2272 356 
C 2272 503 2291 573 2349 821 
C 2394 980 2426 1120 2477 1305 
C 2714 2260 2771 2489 2771 2528 
C 2771 2617 2701 2688 2605 2688 
C 2400 2688 2349 2464 2336 2388 
L 2336 2394 
z
" transform="scale(0.015625)"/>
      </defs>
      <use xlink:href="#CMMI12-4b" transform="scale(0.996264)"/>
      <use xlink:href="#CMMI12-1b" transform="translate(90.147421 36.153639) scale(0.697382)"/>
      <use xlink:href="#CMR17-3d" transform="translate(131.461259 36.153639) scale(0.697382)"/>
      <use xlink:href="#CMR17-31" transform="translate(181.661391 36.153639) scale(0.697382)"/>
      <use xlink:href="#CMR17-38" transform="translate(213.644573 36.153639) scale(0.697382)"/>
      <use xlink:href="#CMMI12-3a" transform="translate(245.627755 36.153639) scale(0.697382)"/>
      <use xlink:href="#CMR17-30" transform="translate(264.595687 36.153639) scale(0.697382)"/>
      <use xlink:href="#CMR17-30" transform="translate(296.578869 36.153639) scale(0.697382)"/>
      <use xlink:href="#CMMI12-6c" transform="translate(82.992611 -28.21539) scale(0.697382)"/>
      <use xlink:href="#CMMI12-6f" transform="translate(104.866395 -28.21539) scale(0.697382)"/>
      <use xlink:href="#CMMI12-67" transform="translate(137.692956 -28.21539) scale(0.697382)"/>
      <use xlink:href="#CMSY10-0" transform="translate(172.892638 -28.21539) scale(0.697382)"/>
      <use xlink:href="#CMMI12-52" transform="translate(227.133631 -28.21539) scale(0.697382)"/>
      <use xlink:href="#CMMI12-42" transform="translate(279.683061 -28.21539) scale(0.697382)"/>
      <use xlink:href="#CMMI12-46" transform="translate(335.077687 -28.21539) scale(0.697382)"/>
      <use xlink:href="#CMMI12-17" transform="translate(419.339297 0) scale(0.996264)"/>
      <use xlink:href="#CMMI12-6d" transform="translate(467.537779 -14.943915) scale(0.697382)"/>
      <use xlink:href="#CMMI12-61" transform="translate(527.266571 -14.943915) scale(0.697382)"/>
      <use xlink:href="#CMMI12-78" transform="translate(563.111917 -14.943915) scale(0.697382)"/>
      <use xlink:href="#CMR17-3d" transform="translate(602.413709 0) scale(0.996264)"/>
      <use xlink:href="#CMR17-34" transform="translate(674.128497 0) scale(0.996264)"/>
     </g>
    </g>
    <g id="line2d_34">
     <path d="M 978.975542 136.130368 
L 1003.975542 136.130368 
L 1028.975542 136.130368 
" style="fill: none; stroke: #ff7f0e; stroke-width: 1.5; stroke-linecap: square"/>
    </g>
    <g id="text_34">
     <!-- {$K_{log-RBF}^{\sigma=7.00}$} $\nu_{max}$={10} -->
     <g transform="translate(1048.975542 144.880368) scale(0.25 -0.25)">
      <defs>
       <path id="CMR17-37" d="M 2886 3955 
L 2886 4096 
L 1382 4096 
C 634 4096 621 4166 595 4288 
L 480 4288 
L 294 3104 
L 410 3104 
C 429 3226 474 3552 550 3673 
C 589 3724 1062 3724 1171 3724 
L 2579 3724 
L 1869 2670 
C 1395 1961 1069 1003 1069 166 
C 1069 89 1069 -128 1299 -128 
C 1530 -128 1530 89 1530 172 
L 1530 466 
C 1530 1514 1709 2204 2003 2644 
L 2886 3955 
z
" transform="scale(0.015625)"/>
      </defs>
      <use xlink:href="#CMMI12-4b" transform="scale(0.996264)"/>
      <use xlink:href="#CMMI12-1b" transform="translate(90.147421 36.153639) scale(0.697382)"/>
      <use xlink:href="#CMR17-3d" transform="translate(131.461259 36.153639) scale(0.697382)"/>
      <use xlink:href="#CMR17-37" transform="translate(181.661391 36.153639) scale(0.697382)"/>
      <use xlink:href="#CMMI12-3a" transform="translate(213.644573 36.153639) scale(0.697382)"/>
      <use xlink:href="#CMR17-30" transform="translate(232.612505 36.153639) scale(0.697382)"/>
      <use xlink:href="#CMR17-30" transform="translate(264.595687 36.153639) scale(0.697382)"/>
      <use xlink:href="#CMMI12-6c" transform="translate(82.992611 -28.21539) scale(0.697382)"/>
      <use xlink:href="#CMMI12-6f" transform="translate(104.866395 -28.21539) scale(0.697382)"/>
      <use xlink:href="#CMMI12-67" transform="translate(137.692956 -28.21539) scale(0.697382)"/>
      <use xlink:href="#CMSY10-0" transform="translate(172.892638 -28.21539) scale(0.697382)"/>
      <use xlink:href="#CMMI12-52" transform="translate(227.133631 -28.21539) scale(0.697382)"/>
      <use xlink:href="#CMMI12-42" transform="translate(279.683061 -28.21539) scale(0.697382)"/>
      <use xlink:href="#CMMI12-46" transform="translate(335.077687 -28.21539) scale(0.697382)"/>
      <use xlink:href="#CMMI12-17" transform="translate(419.339297 0) scale(0.996264)"/>
      <use xlink:href="#CMMI12-6d" transform="translate(467.537779 -14.943915) scale(0.697382)"/>
      <use xlink:href="#CMMI12-61" transform="translate(527.266571 -14.943915) scale(0.697382)"/>
      <use xlink:href="#CMMI12-78" transform="translate(563.111917 -14.943915) scale(0.697382)"/>
      <use xlink:href="#CMR17-3d" transform="translate(602.413709 0) scale(0.996264)"/>
      <use xlink:href="#CMR17-31" transform="translate(674.128497 0) scale(0.996264)"/>
      <use xlink:href="#CMR17-30" transform="translate(719.818974 0) scale(0.996264)"/>
     </g>
    </g>
    <g id="line2d_35">
     <path d="M 978.975542 179.351134 
L 1003.975542 179.351134 
L 1028.975542 179.351134 
" style="fill: none; stroke: #2ca02c; stroke-width: 1.5; stroke-linecap: square"/>
    </g>
    <g id="text_35">
     <!-- {$K_{log-RBF}^{\sigma=7.00}$} $\nu_{max}$={25} -->
     <g transform="translate(1048.975542 188.101134) scale(0.25 -0.25)">
      <use xlink:href="#CMMI12-4b" transform="scale(0.996264)"/>
      <use xlink:href="#CMMI12-1b" transform="translate(90.147421 36.153639) scale(0.697382)"/>
      <use xlink:href="#CMR17-3d" transform="translate(131.461259 36.153639) scale(0.697382)"/>
      <use xlink:href="#CMR17-37" transform="translate(181.661391 36.153639) scale(0.697382)"/>
      <use xlink:href="#CMMI12-3a" transform="translate(213.644573 36.153639) scale(0.697382)"/>
      <use xlink:href="#CMR17-30" transform="translate(232.612505 36.153639) scale(0.697382)"/>
      <use xlink:href="#CMR17-30" transform="translate(264.595687 36.153639) scale(0.697382)"/>
      <use xlink:href="#CMMI12-6c" transform="translate(82.992611 -28.21539) scale(0.697382)"/>
      <use xlink:href="#CMMI12-6f" transform="translate(104.866395 -28.21539) scale(0.697382)"/>
      <use xlink:href="#CMMI12-67" transform="translate(137.692956 -28.21539) scale(0.697382)"/>
      <use xlink:href="#CMSY10-0" transform="translate(172.892638 -28.21539) scale(0.697382)"/>
      <use xlink:href="#CMMI12-52" transform="translate(227.133631 -28.21539) scale(0.697382)"/>
      <use xlink:href="#CMMI12-42" transform="translate(279.683061 -28.21539) scale(0.697382)"/>
      <use xlink:href="#CMMI12-46" transform="translate(335.077687 -28.21539) scale(0.697382)"/>
      <use xlink:href="#CMMI12-17" transform="translate(419.339297 0) scale(0.996264)"/>
      <use xlink:href="#CMMI12-6d" transform="translate(467.537779 -14.943915) scale(0.697382)"/>
      <use xlink:href="#CMMI12-61" transform="translate(527.266571 -14.943915) scale(0.697382)"/>
      <use xlink:href="#CMMI12-78" transform="translate(563.111917 -14.943915) scale(0.697382)"/>
      <use xlink:href="#CMR17-3d" transform="translate(602.413709 0) scale(0.996264)"/>
      <use xlink:href="#CMR17-32" transform="translate(674.128497 0) scale(0.996264)"/>
      <use xlink:href="#CMR17-35" transform="translate(719.818974 0) scale(0.996264)"/>
     </g>
    </g>
   </g>
  </g>
 </g>
 <defs>
  <clipPath id="p6034dd6df6">
   <rect x="81.970479" y="58.882706" width="547.892906" height="281.007561"/>
  </clipPath>
  <clipPath id="p3d6b616ecf">
   <rect x="715.707094" y="58.882706" width="547.892906" height="281.007561"/>
  </clipPath>
 </defs>
</svg>
